<svg width="25" height="25" viewBox="0 0 25 25" fill="none" xmlns="http://www.w3.org/2000/svg">
<path d="M25 12.5C25 5.59453 19.4008 0 12.5 0C5.59453 0 0 5.59453 0 12.5C0 18.7375 4.56953 23.9094 10.5469 24.8461V16.1141H7.37266V12.5008H10.5469V9.74531C10.5469 6.61328 12.4102 4.88359 15.2664 4.88359C16.6344 4.88359 18.0664 5.12734 18.0664 5.12734V8.20312H16.4875C14.9375 8.20312 14.4531 9.16797 14.4531 10.1562V12.5H17.9195L17.3625 16.1133H14.4531V24.8453C20.4258 23.9086 25 18.7367 25 12.4992V12.5Z" fill="white"/>
</svg>
