<svg width="21" height="25" viewBox="0 0 21 25" fill="none" xmlns="http://www.w3.org/2000/svg">
<path d="M18.9844 10.4857C19.3337 10.4857 19.632 10.6531 19.8792 10.9879C20.1264 11.3227 20.25 11.7267 20.25 12.2C20.25 12.6732 20.1264 13.0772 19.8792 13.412C19.632 13.7468 19.3337 13.9142 18.9844 13.9142H18.8361L17.699 22.7803C17.6462 23.191 17.5012 23.5303 17.2639 23.7982C17.0266 24.066 16.7563 24.2 16.4531 24.2H3.79688C3.49365 24.2 3.22339 24.066 2.98608 23.7982C2.74878 23.5303 2.60376 23.191 2.55103 22.7803L1.41394 13.9142H1.26562C0.91626 13.9142 0.617981 13.7468 0.370789 13.412C0.123596 13.0772 0 12.6732 0 12.2C0 11.7267 0.123596 11.3227 0.370789 10.9879C0.617981 10.6531 0.91626 10.4857 1.26562 10.4857H18.9844ZM4.79553 21.2C4.96692 21.1821 5.11029 21.0816 5.22565 20.8986C5.341 20.7156 5.39209 20.508 5.37891 20.2758L5.0625 14.7044C5.04932 14.4723 4.97516 14.2781 4.84003 14.1218C4.7049 13.9656 4.55164 13.8964 4.38025 13.9142C4.20886 13.9321 4.06549 14.0325 3.95013 14.2156C3.83478 14.3986 3.78369 14.6062 3.79688 14.8383L4.11328 20.4098C4.12646 20.633 4.19403 20.8205 4.31598 20.9723C4.43793 21.1241 4.5813 21.2 4.74609 21.2H4.79553ZM8.85938 20.3428V14.7714C8.85938 14.5392 8.79675 14.3383 8.67151 14.1687C8.54626 13.9991 8.39795 13.9142 8.22656 13.9142C8.05518 13.9142 7.90686 13.9991 7.78162 14.1687C7.65637 14.3383 7.59375 14.5392 7.59375 14.7714V20.3428C7.59375 20.575 7.65637 20.7758 7.78162 20.9455C7.90686 21.1151 8.05518 21.2 8.22656 21.2C8.39795 21.2 8.54626 21.1151 8.67151 20.9455C8.79675 20.7758 8.85938 20.575 8.85938 20.3428ZM12.6562 20.3428V14.7714C12.6562 14.5392 12.5936 14.3383 12.4684 14.1687C12.3431 13.9991 12.1948 13.9142 12.0234 13.9142C11.8521 13.9142 11.7037 13.9991 11.5785 14.1687C11.4532 14.3383 11.3906 14.5392 11.3906 14.7714V20.3428C11.3906 20.575 11.4532 20.7758 11.5785 20.9455C11.7037 21.1151 11.8521 21.2 12.0234 21.2C12.1948 21.2 12.3431 21.1151 12.4684 20.9455C12.5936 20.7758 12.6562 20.575 12.6562 20.3428ZM16.1367 20.4098L16.4531 14.8383C16.4663 14.6062 16.4152 14.3986 16.2999 14.2156C16.1845 14.0325 16.0411 13.9321 15.8698 13.9142C15.6984 13.8964 15.5451 13.9656 15.41 14.1218C15.2748 14.2781 15.2007 14.4723 15.1875 14.7044L14.8711 20.2758C14.8579 20.508 14.909 20.7156 15.0244 20.8986C15.1397 21.0816 15.2831 21.1821 15.4545 21.2H15.5039C15.6687 21.2 15.8121 21.1241 15.934 20.9723C16.056 20.8205 16.1235 20.633 16.1367 20.4098ZM4.70654 4.11067L3.78699 9.62852H2.48181L3.48047 3.72227C3.60571 2.93656 3.89905 2.29593 4.36047 1.8004C4.8219 1.30486 5.34924 1.05709 5.9425 1.05709H7.59375C7.59375 0.824951 7.65637 0.624058 7.78162 0.454415C7.90686 0.284773 8.05518 0.199951 8.22656 0.199951H12.0234C12.1948 0.199951 12.3431 0.284773 12.4684 0.454415C12.5936 0.624058 12.6562 0.824951 12.6562 1.05709H14.3075C14.9008 1.05709 15.4281 1.30486 15.8895 1.8004C16.351 2.29593 16.6443 2.93656 16.7695 3.72227L17.7682 9.62852H16.463L15.5435 4.11067C15.4709 3.71781 15.321 3.39638 15.0936 3.14638C14.8661 2.89638 14.6041 2.77138 14.3075 2.77138H12.6562C12.6562 3.00352 12.5936 3.20442 12.4684 3.37406C12.3431 3.5437 12.1948 3.62852 12.0234 3.62852H8.22656C8.05518 3.62852 7.90686 3.5437 7.78162 3.37406C7.65637 3.20442 7.59375 3.00352 7.59375 2.77138H5.9425C5.64587 2.77138 5.38385 2.89638 5.15643 3.14638C4.92902 3.39638 4.77905 3.71781 4.70654 4.11067Z" fill="#2B2B31"/>
</svg>
