<svg width="50" height="68" viewBox="0 0 50 68" fill="none" xmlns="http://www.w3.org/2000/svg">
<path d="M47.999 68C47.999 56.5 47.999 34 47.999 28.5C47.999 21.6993 45.999 19.5 42.499 16.5C38.999 13.5 38.499 13 35.499 10.5C32.499 8 29.3324 6 27.499 4.5C27.499 4.5 25.3659 2.97631 23.999 2M2 68C2 57 2 34 2 28.5C2 21.6993 4 19.5 7.5 16.5C11 13.5 11.5 13 14.5 10.5C17.5 8 20.6667 6 22.5 4.5C24.3333 3 26 2 26 2" stroke="#2b2b31" stroke-width="4"/>
<path d="M35.7381 36C38.6372 36 40.915 36.6651 42.5716 37.9953C44.2282 39.3255 45.0565 41.1999 45.0565 43.6185C45.0565 45.2712 44.6009 46.8836 43.6898 48.4556C42.8201 49.9874 41.7433 51.3982 40.4594 52.6881C39.217 53.978 37.5604 55.53 35.4896 57.3439C33.7916 58.8756 32.5285 60.0446 31.7002 60.8508C30.8719 61.6167 30.1264 62.443 29.4638 63.3298H42.0746C43.1928 63.3298 44.0211 63.2492 44.5595 63.088C45.1393 62.8864 45.5328 62.5841 45.7399 62.181C45.9469 61.7376 46.1126 61.0927 46.2368 60.2462H47.2929C47.2929 63.9546 47.5 66.3384 47.5 67.9857C46.3369 68.018 43.5449 67.9856 38.2852 67.9856H23.7485V66.9577C24.4525 66.2321 25.6536 65.0833 27.3516 63.5112C29.7122 61.3748 31.6795 59.4601 33.2532 57.7671C34.827 56.0338 36.173 54.0788 37.2912 51.9021C38.4508 49.7254 39.0306 47.4076 39.0306 44.9487C39.0306 40.5953 36.9599 38.4186 32.8184 38.4186C29.4223 38.4186 26.6475 40.3131 24.494 44.1022L23.5 43.558C24.5768 41.3813 26.1091 39.5875 28.0971 38.1767C30.085 36.7256 32.632 36 35.7381 36Z" fill="#2b2b31"/>
<path d="M10 61.93V61.22H12.67C12.9567 61.5467 13.1767 61.9333 13.33 62.38C13.4833 62.8267 13.56 63.2967 13.56 63.79C13.56 64.49 13.4067 65.12 13.1 65.68C12.7933 66.24 12.37 66.68 11.83 67C11.2833 67.32 10.6733 67.48 10 67.48C9.32667 67.48 8.72 67.32 8.18 67C7.63333 66.68 7.20667 66.24 6.9 65.68C6.59333 65.12 6.44 64.4867 6.44 63.78C6.44 63.2467 6.52667 62.7567 6.7 62.31C6.86667 61.8633 7.11667 61.4867 7.45 61.18L7.92 61.64C7.37333 62.1933 7.1 62.8967 7.1 63.75C7.1 64.3167 7.22667 64.83 7.48 65.29C7.72667 65.7433 8.07333 66.1 8.52 66.36C8.96 66.62 9.45333 66.75 10 66.75C10.5467 66.75 11.04 66.62 11.48 66.36C11.92 66.1 12.2667 65.7433 12.52 65.29C12.7733 64.8367 12.9 64.3267 12.9 63.76C12.9 63.04 12.72 62.43 12.36 61.93H10ZM11.63 54.7356V58.6356L13.5 59.4756V60.2456L6.5 57.0456V56.3156L13.5 53.1156L13.5 53.8956L11.63 54.7356ZM11.03 55.0056L7.27 56.6856L11.03 58.3656V55.0056ZM7.14 50.9492V53.4092H6.5L6.5 47.7492H7.14L7.14 50.2092H13.5V50.9492H7.14ZM12.86 41.617H13.5V46.567H6.5V41.767H7.14V45.827H9.63V42.207H10.26V45.827H12.86V41.617ZM6.5 30.3652L13.5 32.7252V33.5052L7.53 35.5552L13.5 37.6152V38.3852L6.5 40.7452V39.9852L12.52 37.9652L6.5 35.8752V35.1852L12.55 33.1252L6.5 31.0752V30.3652ZM11.63 24.8333V28.7333L13.5 29.5733V30.3433L6.5 27.1433V26.4133L13.5 23.2133V23.9933L11.63 24.8333ZM11.03 25.1033L7.27 26.7833L11.03 28.4633V25.1033ZM11.08 20.0655H13.5V20.7955H11.08L6.5 23.5955V22.8055L10.43 20.4055L6.5 18.0055V17.2655L11.08 20.0655Z" fill="#2b2b31"/>
<path d="M20.5 22.99H13.5V22.26H16.73V17.88H13.5V17.14H20.5V17.88H17.38V22.26H20.5V22.99ZM14.14 30.2248H13.5V25.2748H20.5L20.5 30.0748H19.86L19.86 26.0148H17.37L17.37 29.6348H16.74L16.74 26.0148H14.14V30.2248ZM13.5 36.7442L15.75 35.1442C15.73 34.9642 15.72 34.7776 15.72 34.5842V32.7042H13.5V31.9642H20.5V34.5842C20.5 35.4776 20.2867 36.1776 19.86 36.6842C19.4333 37.1909 18.8467 37.4442 18.1 37.4442C17.5533 37.4442 17.09 37.3042 16.71 37.0242C16.3367 36.7509 16.0667 36.3576 15.9 35.8442L13.5 37.5542V36.7442ZM16.35 34.5642C16.35 35.2576 16.5033 35.7876 16.81 36.1542C17.1167 36.5209 17.5467 36.7042 18.1 36.7042C18.6667 36.7042 19.1 36.5209 19.4 36.1542C19.7067 35.7876 19.86 35.2576 19.86 34.5642V32.7042H16.35V34.5642ZM20.5 39.1908V39.9308H13.5V39.1908H20.5ZM19.86 43.5684V41.1084H20.5L20.5 46.7684H19.86V44.3084H13.5V43.5684H19.86ZM15.37 51.989V48.089L13.5 47.249V46.479L20.5 49.679V50.409L13.5 53.609V52.829L15.37 51.989ZM15.97 51.719L19.73 50.039L15.97 48.359V51.719ZM17 59.5993V60.3093H14.33C14.0433 59.9826 13.8233 59.596 13.67 59.1493C13.5167 58.7026 13.44 58.2326 13.44 57.7393C13.44 57.0393 13.5933 56.4093 13.9 55.8493C14.2067 55.2893 14.63 54.8493 15.17 54.5293C15.7167 54.2093 16.3267 54.0493 17 54.0493C17.6733 54.0493 18.28 54.2093 18.82 54.5293C19.3667 54.8493 19.7933 55.2893 20.1 55.8493C20.4067 56.4093 20.56 57.0426 20.56 57.7493C20.56 58.2826 20.4733 58.7726 20.3 59.2193C20.1333 59.666 19.8833 60.0426 19.55 60.3493L19.08 59.8893C19.6267 59.336 19.9 58.6326 19.9 57.7793C19.9 57.2126 19.7733 56.6993 19.52 56.2393C19.2733 55.786 18.9267 55.4293 18.48 55.1693C18.04 54.9093 17.5467 54.7793 17 54.7793C16.4533 54.7793 15.96 54.9093 15.52 55.1693C15.08 55.4293 14.7333 55.786 14.48 56.2393C14.2267 56.6926 14.1 57.2026 14.1 57.7693C14.1 58.4893 14.28 59.0993 14.64 59.5993H17ZM14.14 67.3537H13.5V62.4037H20.5L20.5 67.2037H19.86L19.86 63.1437H17.37V66.7637H16.74V63.1437H14.14V67.3537Z" fill="#2b2b31"/>
</svg>
