<svg width="22" height="22" viewBox="0 0 22 22" fill="none" xmlns="http://www.w3.org/2000/svg">
<path d="M4.0788 8.36001H5.80184L6.06672 16.28H3.84956L4.0788 8.36001ZM2.64 16.72H19.36V17.6H20.68V18.92H21.56V19.8H0.440002V18.92H1.32V17.6H2.64V16.72ZM20.24 6.07729L11.0009 2.20001L1.76 6.07729V6.60001H20.24V6.07729ZM3.52 7.04001H18.48V7.92001H3.52V7.04001ZM16.1638 8.36001H17.886L18.1531 16.28H15.9328L16.1638 8.36001ZM12.137 8.36001H13.8591L14.1231 16.28H11.9051L12.137 8.36001ZM8.1092 8.36001H9.8318L10.094 16.28H7.87688L8.1092 8.36001Z" fill="white"/>
</svg>
