<svg width="245" height="41" viewBox="0 0 245 41" fill="none" xmlns="http://www.w3.org/2000/svg">
<g id="PaymentMethods">
<path id="Vector" d="M68.3265 1.92291C67.042 1.92291 66 3.17271 66 4.71477V36.8111C66 38.3529 67.0422 39.6029 68.3265 39.6029H113.673C114.958 39.6029 116 38.3531 116 36.8111V4.71471C116 3.17289 114.958 1.92285 113.673 1.92285L68.3265 1.92291ZM82.3953 6.45855C85.2494 6.45855 87.8705 7.65009 89.9281 9.64041C88.197 11.4992 86.9058 13.9412 86.2687 16.7092H87.2672C87.8552 14.4257 88.9233 12.3927 90.3312 10.7804C91.7391 12.3927 92.8072 14.4257 93.3953 16.7092H94.4094C93.7635 13.9558 92.4705 11.5283 90.7406 9.68169C92.8021 7.66611 95.4336 6.45849 98.3 6.45849C104.915 6.45849 110.277 12.8936 110.277 20.8323C110.277 28.7709 104.915 35.206 98.3 35.206C95.386 35.206 92.714 33.9579 90.6375 31.8816C92.495 29.9424 93.8644 27.3428 94.4906 24.3854H93.514C92.9579 26.8676 91.8387 29.0753 90.3312 30.8017C88.8237 29.0753 87.706 26.8676 87.1499 24.3854H86.2202C86.8501 27.3 88.2016 29.8632 90.0312 31.7842C87.9585 33.8347 85.297 35.0673 82.3952 35.0673C75.7808 35.0673 70.4188 28.6631 70.4188 20.7629C70.4188 12.8627 75.7808 6.45855 82.3953 6.45855ZM97.4016 16.5629C95.9625 16.5629 94.5625 18.0726 94.5625 20.9073C94.5625 22.787 95.3187 24.0273 96.8062 24.0273C97.2268 24.0275 97.8969 23.8211 97.8969 23.8211L98.1187 22.1786C98.1187 22.1786 97.5072 22.5498 97.0875 22.5498C96.2032 22.5498 95.8484 21.7337 95.8484 20.8567C95.8484 19.0775 96.6093 18.0985 97.4563 18.0985C98.0914 18.0985 98.6015 18.5298 98.6015 18.5298L98.8047 16.9323C98.8047 16.9323 98.0496 16.5629 97.4016 16.5629ZM109.5 16.7017L108.248 16.7054L107.98 18.6817C107.98 18.6817 107.509 17.9148 106.773 17.9148C105.629 17.9148 104.677 19.5456 104.677 21.4211C104.677 22.6317 105.184 23.8191 106.223 23.8191C106.971 23.8191 107.386 23.2023 107.386 23.2023L107.331 23.7291H108.547L109.5 16.7017ZM73.6531 16.7223L72.6562 23.7666H73.8578L74.6172 18.4548L74.7297 23.7666H75.589L77.1922 18.4548L76.4812 23.7666H77.7578L78.7422 16.7223H76.7672L75.5375 21.0441L75.4734 16.7223L73.6531 16.7223ZM86.2062 17.1798C86.1791 17.2125 85.4797 22.0522 85.4797 22.6416C85.4797 23.5144 85.8873 23.9042 86.4609 23.8979C86.8719 23.8937 87.1902 23.7698 87.3375 23.7179C87.3529 23.7129 87.3828 23.7029 87.3828 23.7029L87.5375 22.4429C87.4534 22.4429 87.3295 22.4861 87.2203 22.4861C86.792 22.4861 86.7446 22.2126 86.7718 22.0098L87.1172 19.4392H87.7687L87.9265 18.046H87.3125L87.4375 17.1798H86.2062ZM100.73 17.8886C99.891 17.8886 99.2484 18.2204 99.2484 18.2204L99.0703 19.5142C99.0703 19.5142 99.601 19.2498 100.403 19.2498C100.859 19.2498 101.192 19.3123 101.192 19.7673C101.192 20.0436 101.152 20.1461 101.152 20.1461C101.152 20.1461 100.791 20.1086 100.625 20.1086C99.5674 20.1086 98.4562 20.6648 98.4562 22.3379C98.4562 23.6562 99.1857 23.9579 99.6375 23.9579C100.5 23.9579 100.872 23.27 100.892 23.2679L100.852 23.8417H101.928L102.409 19.7017C102.41 17.945 101.163 17.8886 100.73 17.8886ZM80.5343 17.8961C79.6927 17.8961 79.0468 18.2279 79.0468 18.2279L78.8687 19.5217C78.8687 19.5217 79.4013 19.2573 80.2063 19.2573C80.6634 19.2573 80.9984 19.32 80.9984 19.7748C80.9984 20.051 80.9578 20.1536 80.9578 20.1536C80.9578 20.1536 80.5966 20.1161 80.4297 20.1161C79.368 20.1161 78.2531 20.6714 78.2531 22.3436C78.2531 23.6612 78.9841 23.9636 79.4375 23.9636C80.3035 23.9636 80.677 23.2756 80.6969 23.2736L80.6562 23.8473H81.7375L82.2203 19.7092C82.2203 17.9535 80.9689 17.8961 80.5343 17.8961ZM84.3531 17.8961C83.4493 17.8961 82.5313 18.3339 82.5313 19.8292C82.5313 21.5235 84.0609 21.3523 84.0609 22.066C84.0609 22.5424 83.634 22.5817 83.3047 22.5817C82.7347 22.5817 82.2221 22.3454 82.2203 22.3567L82.0562 23.6504C82.0857 23.6614 82.4031 23.8323 83.4281 23.8323C83.7033 23.8323 85.2765 23.9162 85.2765 21.9498C85.2765 20.1114 83.8203 20.4758 83.8203 19.7373C83.8203 19.3696 84.0567 19.2536 84.4906 19.2536C84.6629 19.2536 85.3266 19.3192 85.3266 19.3192L85.4797 18.0123C85.4797 18.0123 85.0514 17.8961 84.3531 17.8961ZM90.0031 17.8961C88.7471 17.8964 87.8172 19.5171 87.8172 21.3479C87.8172 23.4611 88.9823 23.9636 89.975 23.9636C90.8913 23.9636 91.2953 23.7179 91.2953 23.7179L91.514 22.2761C91.514 22.2761 90.817 22.6436 90.1875 22.6436C88.8462 22.6436 89.0812 21.4454 89.0812 21.4454H91.6203C91.6203 21.4454 91.7844 20.4771 91.7844 20.0823C91.7844 19.0971 91.3746 17.8961 90.0031 17.8961ZM94.5516 17.9579C93.9857 17.9579 93.5656 18.8711 93.5656 18.8711L93.6781 18.0329H92.5031L91.7141 23.8192H93.0125C93.3802 21.3483 93.4474 19.3419 94.325 19.7092C94.4786 18.7528 94.6276 18.3833 94.7953 17.9786C94.7953 17.9786 94.7166 17.9579 94.5516 17.9579ZM105.072 17.9579C104.506 17.9579 104.086 18.8711 104.086 18.8711L104.198 18.0329H103.023L102.234 23.8192H103.531C103.899 21.3483 103.968 19.3419 104.845 19.7092C104.999 18.7528 105.148 18.3833 105.316 17.9786C105.316 17.9786 105.237 17.9579 105.072 17.9579ZM89.9968 19.2011C90.7102 19.2011 90.5797 20.1673 90.5797 20.2454H89.175C89.175 20.1457 89.3078 19.2011 89.9968 19.2011ZM106.97 19.3136C107.424 19.3134 107.658 19.6814 107.658 20.5473C107.658 21.3329 107.328 22.3829 106.644 22.3829C106.19 22.3829 105.977 21.9331 105.977 21.2279C105.977 20.0748 106.416 19.3136 106.97 19.3136ZM100.731 21.2823C100.916 21.2826 100.955 21.3042 100.986 21.3142C100.981 21.3133 100.981 21.3143 100.998 21.3179C101.022 21.5756 100.869 22.7842 100.128 22.7842C99.7462 22.7842 99.6484 22.4198 99.6484 22.2048C99.6484 21.7855 99.8303 21.2823 100.731 21.2823ZM80.5359 21.2879C80.7463 21.2882 80.7692 21.3164 80.8047 21.3236C80.8282 21.5811 80.6744 22.7879 79.9312 22.7879C79.5479 22.7879 79.4484 22.4253 79.4484 22.2104C79.4484 21.7914 79.6314 21.2879 80.5359 21.2879Z" fill="black"/>
<path id="Vector_2" d="M2 1.2229C0.89565 1.2229 0 2.29738 0 3.6229V36.5029C0 37.8284 0.8961 38.9029 2 38.9029H48C49.1044 38.9029 50 37.8284 50 36.5029V3.6229C50 2.29744 49.1039 1.2229 48 1.2229H2ZM29.8625 12.4523C31.0794 12.4523 32.0547 12.7748 32.6766 13.0748L32.2516 16.2829L31.9703 16.1123C31.391 15.8123 30.6468 15.5237 29.6203 15.5441C28.3915 15.5441 27.8235 16.2019 27.8235 16.8173C27.8163 17.5107 28.4872 17.9681 29.5844 18.6529C31.3952 19.7095 32.2321 20.9906 32.2203 22.6748C32.1959 25.7478 30.0542 27.7335 26.7547 27.7335C25.3471 27.7149 23.9909 27.3573 23.2578 26.9441L23.6985 23.6291L24.1031 23.8654C25.134 24.4181 25.8015 24.6417 27.0578 24.6417C27.96 24.6417 28.9283 24.1884 28.936 23.196C28.9418 22.548 28.5312 22.086 27.3094 21.3604C26.1188 20.6522 24.5404 19.4658 24.5579 17.3385C24.5765 14.4609 26.761 12.4523 29.8625 12.4523V12.4523ZM4.42185 12.9229H9.48905C10.1714 12.9539 10.7223 13.2175 10.9125 14.106L12.0047 20.871C12.0048 20.8716 12.0045 20.8741 12.0047 20.8748L12.3328 22.9017L15.4094 12.9229H18.7375L13.7906 27.5292L10.4656 27.5329L7.81875 15.7466C9.39365 16.7478 10.7344 17.9063 11.5109 19.5004C11.3107 18.996 11.047 18.4266 10.7094 17.8654C10.3163 17.2119 9.46735 16.3681 9.1125 16.0091C7.876 14.7583 6.19675 13.7481 4.3828 13.2135L4.42185 12.9229V12.9229ZM20.061 12.9398H23.3156L21.2796 27.5235H18.025L20.061 12.9398V12.9398ZM38.4438 12.9398H40.9094L43.4907 27.5235H40.5313C40.5313 27.5235 40.2377 25.8481 40.1422 25.3373C39.6771 25.3373 36.4239 25.3317 36.0578 25.3317C35.934 25.7265 35.386 27.5235 35.386 27.5235H32.0375L36.7735 14.151C37.1088 13.2008 37.6803 12.9398 38.4438 12.9398V12.9398ZM38.686 16.8623C38.5258 17.4047 38.247 18.2807 38.2656 18.2423C38.2656 18.2423 37.2637 21.4487 37.0016 22.281L39.6344 22.2791C39.5075 21.556 38.9 18.1074 38.9 18.1074L38.686 16.8624V16.8623Z" fill="black"/>
<path id="Vector_3" d="M211.172 20.4214C211.172 21.5231 210.33 22.3616 209.262 22.3616C208.464 22.3616 207.873 21.892 207.873 21.008C207.873 19.9062 208.698 19.0222 209.758 19.0222C210.565 19.0222 211.173 19.5374 211.173 20.4214H211.172ZM201.987 16.0436H201.58C201.45 16.0436 201.319 16.1346 201.301 16.2874L200.928 18.6989L201.64 18.6712C202.595 18.6712 203.333 18.5364 203.506 17.3891C203.706 16.1785 202.969 16.0436 201.987 16.0436V16.0436ZM226.64 16.0436H226.25C226.094 16.0436 225.989 16.1346 225.972 16.2874L225.608 18.6989L226.301 18.6712C227.43 18.6712 228.211 18.3999 228.211 17.0462C228.201 16.0891 227.378 16.0436 226.639 16.0436H226.64ZM245 4.33387V36.1124C244.999 37.2616 244.56 38.3637 243.779 39.1764C242.997 39.9891 241.938 40.4458 240.833 40.4462H199.165C198.06 40.4458 197.001 39.9891 196.219 39.1764C195.438 38.3637 194.999 37.2616 194.998 36.1124V4.33387C194.999 3.18459 195.438 2.0825 196.219 1.26984C197.001 0.457172 198.06 0.000430685 199.165 0H240.833C241.938 0.000430685 242.997 0.457172 243.779 1.26984C244.56 2.0825 244.999 3.18459 245 4.33387V4.33387ZM206.137 16.5571C206.137 14.6607 204.731 14.0286 203.125 14.0286H199.653C199.541 14.0295 199.433 14.0732 199.35 14.1514C199.266 14.2296 199.214 14.3368 199.201 14.4527L197.778 23.6697C197.751 23.8501 197.883 24.0305 198.056 24.0305H199.706C199.94 24.0305 200.158 23.7689 200.184 23.5154L200.575 21.1136C200.662 20.4636 201.72 20.6895 202.137 20.6895C204.62 20.6895 206.139 19.1555 206.139 16.5555L206.137 16.5571ZM213.447 17.3517H211.797C211.467 17.3517 211.45 17.849 211.433 18.0927C210.93 17.3257 210.2 17.1892 209.375 17.1892C207.248 17.1892 205.625 19.1295 205.625 21.2696C205.625 23.0295 206.684 24.1767 208.376 24.1767C209.158 24.1767 210.13 23.7347 210.676 23.1026C210.626 23.2852 210.597 23.4734 210.589 23.6632C210.589 23.8712 210.676 24.024 210.867 24.024H212.361C212.595 24.024 212.795 23.7624 212.839 23.5089L213.725 17.7044C213.751 17.5321 213.62 17.3517 213.447 17.3517V17.3517ZM216.962 26.1901L222.492 17.8295C222.536 17.784 222.536 17.7385 222.536 17.6767C222.536 17.524 222.406 17.3615 222.258 17.3615H220.59C220.513 17.3647 220.437 17.3868 220.369 17.426C220.301 17.4652 220.243 17.5205 220.2 17.5874L217.9 21.1087L216.945 17.7239C216.909 17.6209 216.845 17.5315 216.759 17.4672C216.674 17.4029 216.572 17.3666 216.467 17.3631H214.844C214.695 17.3631 214.565 17.5256 214.565 17.6784C214.565 17.7872 216.258 22.8069 216.406 23.2846C216.172 23.6275 214.626 25.8667 214.626 26.1381C214.626 26.3006 214.756 26.4274 214.905 26.4274H216.572C216.65 26.422 216.725 26.3982 216.793 26.3576C216.861 26.317 216.919 26.2608 216.962 26.1934V26.1901ZM230.79 16.5571C230.79 14.6607 229.384 14.0286 227.778 14.0286H224.331C224.216 14.0277 224.104 14.07 224.016 14.1479C223.928 14.2258 223.87 14.3341 223.853 14.4527L222.447 23.6616C222.43 23.842 222.559 24.0224 222.725 24.0224H224.505C224.678 24.0224 224.808 23.8875 224.851 23.7331L225.242 21.1152C225.33 20.4652 226.389 20.6911 226.805 20.6911C229.27 20.6911 230.789 19.1571 230.789 16.5571H230.79ZM238.098 17.3517H236.448C236.119 17.3517 236.101 17.849 236.075 18.0927C235.597 17.3257 234.859 17.1892 234.017 17.1892C231.89 17.1892 230.267 19.1295 230.267 21.2696C230.267 23.0295 231.326 24.1767 233.019 24.1767C233.826 24.1767 234.798 23.7347 235.319 23.1026C235.292 23.2375 235.231 23.5267 235.231 23.6632C235.231 23.8712 235.319 24.024 235.509 24.024H237.011C237.245 24.024 237.445 23.7624 237.489 23.5089L238.375 17.7044C238.401 17.5321 238.27 17.3517 238.097 17.3517H238.098ZM242.222 14.3455C242.222 14.1651 242.092 14.0302 241.944 14.0302H240.337C240.208 14.0302 240.076 14.1391 240.059 14.274L238.653 23.6632L238.628 23.7087C238.628 23.8712 238.758 24.024 238.931 24.024H240.364C240.581 24.024 240.798 23.7624 240.815 23.5089L242.222 14.3731V14.3455ZM234.409 19.0222C233.35 19.0222 232.525 19.8981 232.525 21.008C232.525 21.8839 233.133 22.3616 233.931 22.3616C234.973 22.3616 235.815 21.5312 235.815 20.4214C235.825 19.5374 235.217 19.0222 234.409 19.0222V19.0222Z" fill="black"/>
<path id="Vector_4" d="M146.243 1.22292C144.242 1.22261 142.259 1.70968 140.41 2.65634C138.561 3.60299 136.88 4.99069 135.465 6.74017C134.049 8.48966 132.926 10.5667 132.16 12.8526C131.394 15.1385 131 17.5886 131 20.0629C131.001 23.6434 131.826 27.1496 133.381 30.1708C134.936 33.1919 137.155 35.6029 139.778 37.1214C142.401 38.6398 145.32 39.2028 148.193 38.7444C151.065 38.2859 153.773 36.8251 155.998 34.5329C158.224 36.8264 160.931 38.2883 163.805 38.7474C166.678 39.2066 169.598 38.6439 172.222 37.1253C174.845 35.6067 177.065 33.1951 178.619 30.1732C180.174 27.1513 181 23.6442 181 20.0629C181 16.4816 180.174 12.9745 178.619 9.9526C177.065 6.93068 174.845 4.51913 172.222 3.00054C169.598 1.48196 166.678 0.919259 163.805 1.37839C160.931 1.83752 158.224 3.29945 155.998 5.59287C153.264 2.76354 149.809 1.21625 146.243 1.22292ZM165.753 6.04627C168.76 6.04946 171.643 7.52716 173.769 10.155C175.896 12.7829 177.091 16.3462 177.095 20.0629C177.092 23.78 175.896 27.344 173.77 29.9723C171.644 32.6007 168.76 34.0788 165.753 34.082C163.065 34.082 160.626 32.852 158.681 30.9154C160.502 27.7441 161.483 23.9522 161.487 20.0629C161.483 16.1736 160.502 12.3817 158.681 9.21038C160.626 7.2714 163.065 6.04385 165.753 6.04385V6.04627Z" fill="black"/>
</g>
</svg>
